<svg id="visual" viewBox="0 0 900 600" xmlns="http://www.w3.org/2000/svg" xmlns:xlink="http://www.w3.org/1999/xlink" version="1.1"><rect x="0" y="0" width="900" height="600" fill="none"></rect><g transform="translate(900, 0)"><path d="M0 405.6C-39.5 370.7 -79.1 335.7 -133.6 322.4C-188 309.1 -257.4 317.5 -286.8 286.8C-316.2 256.1 -305.6 186.3 -318.7 132C-331.9 77.7 -368.7 38.9 -405.6 0L0 0Z" fill="#0066FF"></path></g><g transform="translate(0, 600)"><path d="M0 -405.6C51.8 -391.9 103.6 -378.2 147 -354.8C190.3 -331.3 225.1 -298.2 265.2 -265.2C305.2 -232.2 350.5 -199.4 374.7 -155.2C399 -111.1 402.3 -55.5 405.6 0L0 0Z" fill="#0066FF"></path></g></svg>