<?xml version="1.0" encoding="UTF-8"?>
<!DOCTYPE svg PUBLIC "-//W3C//DTD SVG 1.1//EN" "http://www.w3.org/Graphics/SVG/1.1/DTD/svg11.dtd">
<svg xmlns="http://www.w3.org/2000/svg" version="1.1" width="580px" height="580px" style="shape-rendering:geometricPrecision; text-rendering:geometricPrecision; image-rendering:optimizeQuality; fill-rule:evenodd; clip-rule:evenodd" xmlns:xlink="http://www.w3.org/1999/xlink">
<g><path style="opacity:1" fill="#fcfcfc" d="M 265.5,-0.5 C 276.167,-0.5 286.833,-0.5 297.5,-0.5C 318.575,6.62844 327.075,21.2951 323,43.5C 319.748,54.2494 312.915,61.5827 302.5,65.5C 299.99,65.0535 297.99,65.7202 296.5,67.5C 295.5,67.5 294.5,67.5 293.5,67.5C 293.265,66.9033 292.765,66.5699 292,66.5C 288.015,67.0721 284.182,67.7388 280.5,68.5C 191.614,75.6624 127.448,118.996 88,198.5C 59.5159,266.578 62.5159,333.245 97,398.5C 136.674,464.762 195.174,501.928 272.5,510C 362.471,513.602 431.638,477.769 480,402.5C 500.796,366.319 511.129,327.319 511,285.5C 516.411,262.371 530.911,252.538 554.5,256C 567.791,259.79 576.124,268.29 579.5,281.5C 579.5,292.5 579.5,303.5 579.5,314.5C 568.184,411.681 521.517,486.514 439.5,539C 400.687,561.661 359.02,575.161 314.5,579.5C 298.167,579.5 281.833,579.5 265.5,579.5C 172.165,569.275 98.998,525.608 46,448.5C 18.9899,405.97 3.48993,359.636 -0.5,309.5C -0.5,296.167 -0.5,282.833 -0.5,269.5C 9.89678,164.163 60.8968,85.3299 152.5,33C 188.033,14.2055 225.699,3.03879 265.5,-0.5 Z"/></g>
<g><path style="opacity:1" fill="#fcfcfc" d="M 361.5,57.5 C 428.607,56.6155 477.107,85.9488 507,145.5C 528.844,201.421 521.511,253.087 485,300.5C 441.747,347.11 389.247,362.277 327.5,346C 285.999,331.829 255.833,304.995 237,265.5C 214.651,208.61 222.318,156.277 260,108.5C 287.367,78.5663 321.201,61.5663 361.5,57.5 Z M 369.5,109.5 C 419.531,112.036 451.364,137.37 465,185.5C 471.749,230.494 455.916,264.994 417.5,289C 382.108,306.091 348.108,303.758 315.5,282C 280.601,253.256 269.435,217.089 282,173.5C 298.276,134.454 327.443,113.12 369.5,109.5 Z"/></g>
<g><path style="opacity:0.816" fill="#9c9c9c" d="M 302.5,65.5 C 300.786,66.7384 298.786,67.405 296.5,67.5C 297.99,65.7202 299.99,65.0535 302.5,65.5 Z"/></g>
<g><path style="opacity:0.075" fill="#b9b9b9" d="M 293.5,67.5 C 289.366,68.4849 285.032,68.8182 280.5,68.5C 284.182,67.7388 288.015,67.0721 292,66.5C 292.765,66.5699 293.265,66.9033 293.5,67.5 Z"/></g>
</svg>
