<?xml version="1.0" encoding="UTF-8"?>
<!DOCTYPE svg PUBLIC "-//W3C//DTD SVG 1.1//EN" "http://www.w3.org/Graphics/SVG/1.1/DTD/svg11.dtd">
<svg xmlns="http://www.w3.org/2000/svg" version="1.1" width="1536px" height="718px" style="shape-rendering:geometricPrecision; text-rendering:geometricPrecision; image-rendering:optimizeQuality; fill-rule:evenodd; clip-rule:evenodd" xmlns:xlink="http://www.w3.org/1999/xlink">
<g><path style="opacity:0.999" fill="#000000" d="M 572.5,14.5 C 578.389,19.4712 584.389,24.4712 590.5,29.5C 590.622,32.2921 591.956,34.2921 594.5,35.5C 595.338,35.8417 595.672,36.5084 595.5,37.5C 595.427,39.0269 596.094,40.0269 597.5,40.5C 602.305,47.6936 604.972,55.6936 605.5,64.5C 605.5,259.833 605.5,455.167 605.5,650.5C 604.759,661.404 601.093,671.071 594.5,679.5C 591.723,681.951 589.723,684.951 588.5,688.5C 586.167,688.833 584.833,690.167 584.5,692.5C 580.86,692.475 578.527,694.142 577.5,697.5C 571.891,699.638 566.558,702.304 561.5,705.5C 545.381,711.73 529.381,711.73 513.5,705.5C 507.172,702.175 500.838,698.842 494.5,695.5C 491.757,690.422 487.757,686.755 482.5,684.5C 480.592,681.688 478.925,678.688 477.5,675.5C 477.715,673.821 477.048,672.821 475.5,672.5C 470.654,662.78 468.154,652.447 468,641.5C 467.333,452.167 467.333,262.833 468,73.5C 468.048,61.9685 470.881,51.3018 476.5,41.5C 477.906,41.0269 478.573,40.0269 478.5,38.5C 478.427,36.9731 479.094,35.9731 480.5,35.5C 483.949,30.5482 487.949,26.0482 492.5,22C 495.961,20.3572 498.961,18.1905 501.5,15.5C 501.973,14.0937 502.973,13.427 504.5,13.5C 509.032,12.8948 513.032,11.2281 516.5,8.5C 516.833,8.5 517.167,8.5 517.5,8.5C 519.898,8.74061 521.898,8.07394 523.5,6.5C 540.857,3.22629 557.19,5.89296 572.5,14.5 Z"/></g>
<g><path style="opacity:1" fill="#000000" d="M 1030.5,15.5 C 1033.36,19.0095 1037.02,21.3429 1041.5,22.5C 1043.34,26.0165 1046,29.0165 1049.5,31.5C 1051.04,36.0242 1053.38,40.0242 1056.5,43.5C 1059.16,48.155 1060.83,53.155 1061.5,58.5C 1062.05,61.8067 1062.38,65.1401 1062.5,68.5C 1062.5,261.833 1062.5,455.167 1062.5,648.5C 1062.17,651.167 1061.83,653.833 1061.5,656.5C 1061.2,662.052 1059.54,667.052 1056.5,671.5C 1051.12,680.258 1044.79,688.258 1037.5,695.5C 1031.14,698.875 1024.81,702.209 1018.5,705.5C 1002.61,711.714 986.611,711.714 970.5,705.5C 963.172,701.175 955.838,696.841 948.5,692.5C 947.738,690.738 946.404,689.738 944.5,689.5C 944.5,689.167 944.5,688.833 944.5,688.5C 944.512,685.858 943.179,684.525 940.5,684.5C 936.671,679.662 933.671,674.328 931.5,668.5C 930.499,662.823 929.332,657.157 928,651.5C 927.5,456.5 927.333,261.5 927.5,66.5C 928.716,60.5389 929.716,54.5389 930.5,48.5C 931.742,44.3447 933.742,40.678 936.5,37.5C 939.934,33.4943 943.268,29.3276 946.5,25C 951.35,21.6366 956.017,18.1366 960.5,14.5C 970.819,8.08533 982.153,5.08533 994.5,5.5C 1007.69,5.01494 1019.69,8.34828 1030.5,15.5 Z"/></g>
<g><path style="opacity:0.792" fill="#000000" d="M 523.5,6.5 C 521.898,8.07394 519.898,8.74061 517.5,8.5C 519.102,6.92606 521.102,6.25939 523.5,6.5 Z"/></g>
<g><path style="opacity:0.973" fill="#000000" d="M 516.5,8.5 C 513.032,11.2281 509.032,12.8948 504.5,13.5C 508.099,11.0723 512.099,9.40563 516.5,8.5 Z"/></g>
<g><path style="opacity:0.722" fill="#000000" d="M 572.5,14.5 C 578.998,17.8164 584.831,22.1498 590,27.5C 590.464,28.0944 590.631,28.7611 590.5,29.5C 584.389,24.4712 578.389,19.4712 572.5,14.5 Z"/></g>
<g><path style="opacity:0.229" fill="#000000" d="M 1030.5,15.5 C 1034.95,16.6146 1038.61,18.9479 1041.5,22.5C 1037.02,21.3429 1033.36,19.0095 1030.5,15.5 Z"/></g>
<g><path style="opacity:0.212" fill="#000000" d="M 1041.5,22.5 C 1044.9,24.8998 1047.57,27.8998 1049.5,31.5C 1046,29.0165 1043.34,26.0165 1041.5,22.5 Z"/></g>
<g><path style="opacity:0.173" fill="#000000" d="M 501.5,15.5 C 498.961,18.1905 495.961,20.3572 492.5,22C 487.949,26.0482 483.949,30.5482 480.5,35.5C 484.902,26.0982 491.902,19.4315 501.5,15.5 Z"/></g>
<g><path style="opacity:0.435" fill="#000000" d="M 960.5,14.5 C 956.017,18.1366 951.35,21.6366 946.5,25C 943.268,29.3276 939.934,33.4943 936.5,37.5C 941.475,26.6788 949.475,19.0121 960.5,14.5 Z"/></g>
<g><path style="opacity:0.024" fill="#000000" d="M 590.5,29.5 C 592.822,30.8021 594.155,32.8021 594.5,35.5C 591.956,34.2921 590.622,32.2921 590.5,29.5 Z"/></g>
<g><path style="opacity:0.043" fill="#000000" d="M 1049.5,31.5 C 1051.8,33.4006 1053.63,35.7339 1055,38.5C 1056.01,40.0249 1056.51,41.6916 1056.5,43.5C 1053.38,40.0242 1051.04,36.0242 1049.5,31.5 Z"/></g>
<g><path style="opacity:0.329" fill="#000000" d="M 595.5,37.5 C 596.906,37.9731 597.573,38.9731 597.5,40.5C 596.094,40.0269 595.427,39.0269 595.5,37.5 Z"/></g>
<g><path style="opacity:0.275" fill="#000000" d="M 478.5,38.5 C 478.573,40.0269 477.906,41.0269 476.5,41.5C 476.427,39.9731 477.094,38.9731 478.5,38.5 Z"/></g>
<g><path style="opacity:0.596" fill="#000000" d="M 1061.5,58.5 C 1063,61.4129 1064,64.5796 1064.5,68C 1064.27,68.3988 1063.94,68.5654 1063.5,68.5C 1063.17,68.5 1062.83,68.5 1062.5,68.5C 1062.38,65.1401 1062.05,61.8067 1061.5,58.5 Z"/></g>
<g><path style="opacity:0.952" fill="#000000" d="M 927.5,66.5 C 927.333,261.5 927.5,456.5 928,651.5C 929.332,657.157 930.499,662.823 931.5,668.5C 928.296,663.028 926.629,657.028 926.5,650.5C 926.167,455.666 926.5,260.999 927.5,66.5 Z"/></g>
<g><path style="opacity:0.592" fill="#000000" d="M 605.5,64.5 C 606.167,216.236 606.834,368.069 607.5,520C 606.701,560.208 606.701,600.874 607.5,642C 606.872,644.939 606.205,647.772 605.5,650.5C 605.5,455.167 605.5,259.833 605.5,64.5 Z"/></g>
<g><path style="opacity:0.902" fill="#000000" d="M 1062.5,68.5 C 1062.83,68.5 1063.17,68.5 1063.5,68.5C 1064.11,252.957 1064.11,446.291 1063.5,648.5C 1063.17,648.5 1062.83,648.5 1062.5,648.5C 1062.5,455.167 1062.5,261.833 1062.5,68.5 Z"/></g>
<g><path style="opacity:1" fill="#000000" d="M 775.5,101.5 C 776.748,103.69 778.414,104.023 780.5,102.5C 780.833,102.5 781.167,102.5 781.5,102.5C 787.685,105.189 793.852,108.189 800,111.5C 800.986,110.829 802.153,110.829 803.5,111.5C 803.833,111.5 804.167,111.5 804.5,111.5C 805.035,113.446 806.368,114.446 808.5,114.5C 814.848,120.848 820.848,127.515 826.5,134.5C 826.427,136.027 827.094,137.027 828.5,137.5C 832.412,144.239 834.745,151.572 835.5,159.5C 835.5,292.167 835.5,424.833 835.5,557.5C 835.5,557.833 835.5,558.167 835.5,558.5C 834.351,558.791 833.684,559.624 833.5,561C 832.784,563.792 832.451,566.626 832.5,569.5C 832.02,572.443 831.02,575.11 829.5,577.5C 827.75,578.659 826.75,580.326 826.5,582.5C 821.173,588.828 815.84,595.161 810.5,601.5C 806.801,604.35 802.801,606.683 798.5,608.5C 790.172,610.507 782.172,612.841 774.5,615.5C 769.833,616.833 765.167,616.833 760.5,615.5C 760.389,614.883 760.056,614.383 759.5,614C 756.518,613.502 753.518,613.335 750.5,613.5C 750.167,613.5 749.833,613.5 749.5,613.5C 746.587,610.635 742.921,609.301 738.5,609.5C 734.577,608.205 730.91,606.372 727.5,604C 726.619,603.292 725.953,602.458 725.5,601.5C 721.833,597.167 717.833,593.167 713.5,589.5C 713.262,587.596 712.262,586.262 710.5,585.5C 710.573,583.973 709.906,582.973 708.5,582.5C 708.25,580.326 707.25,578.659 705.5,577.5C 703.98,575.11 702.98,572.443 702.5,569.5C 702.549,566.626 702.216,563.792 701.5,561C 701.316,559.624 700.649,558.791 699.5,558.5C 699.5,558.167 699.5,557.833 699.5,557.5C 699.333,428.166 699.5,298.833 700,169.5C 700.765,163.183 701.265,156.849 701.5,150.5C 702.37,145.777 704.036,141.444 706.5,137.5C 707.906,137.027 708.573,136.027 708.5,134.5C 710.262,133.738 711.262,132.404 711.5,130.5C 711.932,129.29 712.599,128.29 713.5,127.5C 717.833,123.833 721.833,119.833 725.5,115.5C 729.708,111.315 734.708,108.315 740.5,106.5C 742.527,106.662 744.527,106.495 746.5,106C 748.119,105.764 749.119,104.931 749.5,103.5C 758.351,100.69 767.018,100.023 775.5,101.5 Z"/></g>
<g><path style="opacity:0.759" fill="#000000" d="M 775.5,101.5 C 777.415,101.216 779.081,101.549 780.5,102.5C 778.414,104.023 776.748,103.69 775.5,101.5 Z"/></g>
<g><path style="opacity:0.894" fill="#000000" d="M 749.5,103.5 C 749.119,104.931 748.119,105.764 746.5,106C 744.527,106.495 742.527,106.662 740.5,106.5C 743.215,104.928 746.215,103.928 749.5,103.5 Z"/></g>
<g><path style="opacity:0.569" fill="#000000" d="M 781.5,102.5 C 789.726,103.569 797.059,106.569 803.5,111.5C 802.153,110.829 800.986,110.829 800,111.5C 793.852,108.189 787.685,105.189 781.5,102.5 Z"/></g>
<g><path style="opacity:0.62" fill="#000000" d="M 804.5,111.5 C 806.23,112.026 807.564,113.026 808.5,114.5C 806.368,114.446 805.035,113.446 804.5,111.5 Z"/></g>
<g><path style="opacity:0.576" fill="#000000" d="M 725.5,115.5 C 721.833,119.833 717.833,123.833 713.5,127.5C 716.5,122.5 720.5,118.5 725.5,115.5 Z"/></g>
<g><path style="opacity:0.098" fill="#000000" d="M 808.5,114.5 C 816.288,119.618 822.288,126.285 826.5,134.5C 820.848,127.515 814.848,120.848 808.5,114.5 Z"/></g>
<g><path style="opacity:1" fill="#000000" d="M 324.5,126.5 C 326.214,127.738 328.214,128.405 330.5,128.5C 333.542,128.733 336.208,129.733 338.5,131.5C 345.638,136.242 352.638,141.242 359.5,146.5C 360.433,149.37 362.1,151.704 364.5,153.5C 373.036,164.601 377.536,177.268 378,191.5C 378.667,302.5 378.667,413.5 378,524.5C 377.089,540.968 371.256,555.301 360.5,567.5C 358.086,568.911 356.419,570.911 355.5,573.5C 353.821,573.285 352.821,573.952 352.5,575.5C 345.897,578.801 339.231,582.135 332.5,585.5C 331.702,585.957 331.369,586.624 331.5,587.5C 331.167,587.5 330.833,587.5 330.5,587.5C 329.377,586.243 328.711,586.576 328.5,588.5C 328.167,588.5 327.833,588.5 327.5,588.5C 326.053,587.115 325.053,587.448 324.5,589.5C 312.735,591.003 301.069,590.669 289.5,588.5C 283.123,584.808 276.456,581.308 269.5,578C 263.396,572.313 257.396,566.48 251.5,560.5C 248.027,555.22 245.36,549.553 243.5,543.5C 243.495,540.468 243.162,537.468 242.5,534.5C 242.36,532.97 241.693,531.97 240.5,531.5C 239.336,415.903 239.169,300.236 240,184.5C 241.113,174.985 244.28,166.318 249.5,158.5C 257.571,147.357 267.571,138.357 279.5,131.5C 281.509,129.935 283.843,128.935 286.5,128.5C 289.152,128.59 291.485,127.924 293.5,126.5C 303.833,123.833 314.167,123.833 324.5,126.5 Z"/></g>
<g><path style="opacity:0.998" fill="#000000" d="M 1254.5,131.5 C 1262.7,137.194 1270.2,143.86 1277,151.5C 1281.05,157.606 1284.55,163.939 1287.5,170.5C 1289.12,174.322 1290.12,178.322 1290.5,182.5C 1290.5,298.833 1290.5,415.167 1290.5,531.5C 1290.5,532.833 1290.5,534.167 1290.5,535.5C 1289.07,536.78 1288.4,538.447 1288.5,540.5C 1288.57,541.959 1288.23,543.292 1287.5,544.5C 1279.06,564.935 1264.4,578.935 1243.5,586.5C 1242.7,586.957 1242.37,587.624 1242.5,588.5C 1241.83,588.5 1241.17,588.5 1240.5,588.5C 1240.26,587.903 1239.76,587.57 1239,587.5C 1236.97,587.954 1235.14,588.62 1233.5,589.5C 1226.15,590.796 1218.82,590.796 1211.5,589.5C 1206.95,588.022 1202.29,586.522 1197.5,585C 1192.22,582.193 1186.89,579.693 1181.5,577.5C 1180.37,574.029 1178.03,572.029 1174.5,571.5C 1174.51,568.858 1173.18,567.525 1170.5,567.5C 1166.69,563.353 1163.69,558.686 1161.5,553.5C 1160.65,549.447 1159.48,545.447 1158,541.5C 1157.62,542.056 1157.12,542.389 1156.5,542.5C 1155.36,539.281 1154.53,535.947 1154,532.5C 1153.33,415.833 1153.33,299.167 1154,182.5C 1155.28,172.816 1158.78,164.15 1164.5,156.5C 1166.82,155.198 1168.16,153.198 1168.5,150.5C 1169.17,149.5 1169.83,148.5 1170.5,147.5C 1173.5,146.5 1175.5,144.5 1176.5,141.5C 1176.83,140.5 1177.5,139.833 1178.5,139.5C 1178.37,140.239 1178.54,140.906 1179,141.5C 1183.48,138.024 1187.98,134.69 1192.5,131.5C 1193.93,130.463 1195.6,129.796 1197.5,129.5C 1201.16,129.277 1204.5,128.277 1207.5,126.5C 1214.94,124.639 1222.6,124.139 1230.5,125C 1238.78,126.237 1246.78,128.403 1254.5,131.5 Z"/></g>
<g><path style="opacity:0.017" fill="#000000" d="M 324.5,126.5 C 327.01,126.054 329.01,126.72 330.5,128.5C 328.214,128.405 326.214,127.738 324.5,126.5 Z"/></g>
<g><path style="opacity:0.835" fill="#000000" d="M 293.5,126.5 C 291.485,127.924 289.152,128.59 286.5,128.5C 288.515,127.076 290.848,126.41 293.5,126.5 Z"/></g>
<g><path style="opacity:0.871" fill="#000000" d="M 1207.5,126.5 C 1204.5,128.277 1201.16,129.277 1197.5,129.5C 1200.5,127.723 1203.84,126.723 1207.5,126.5 Z"/></g>
<g><path style="opacity:0.557" fill="#000000" d="M 711.5,130.5 C 711.262,132.404 710.262,133.738 708.5,134.5C 708.738,132.596 709.738,131.262 711.5,130.5 Z"/></g>
<g><path style="opacity:0.239" fill="#000000" d="M 338.5,131.5 C 341.691,132.092 344.691,133.259 347.5,135C 350.5,137.333 353.5,139.667 356.5,142C 358.141,143.129 359.141,144.629 359.5,146.5C 352.638,141.242 345.638,136.242 338.5,131.5 Z"/></g>
<g><path style="opacity:0.157" fill="#000000" d="M 1192.5,131.5 C 1187.98,134.69 1183.48,138.024 1179,141.5C 1178.54,140.906 1178.37,140.239 1178.5,139.5C 1182.55,135.806 1187.22,133.14 1192.5,131.5 Z"/></g>
<g><path style="opacity:0.098" fill="#000000" d="M 708.5,134.5 C 708.573,136.027 707.906,137.027 706.5,137.5C 706.427,135.973 707.094,134.973 708.5,134.5 Z"/></g>
<g><path style="opacity:0.106" fill="#000000" d="M 826.5,134.5 C 827.906,134.973 828.573,135.973 828.5,137.5C 827.094,137.027 826.427,136.027 826.5,134.5 Z"/></g>
<g><path style="opacity:0.369" fill="#000000" d="M 1176.5,141.5 C 1175.5,144.5 1173.5,146.5 1170.5,147.5C 1172.17,145.167 1174.17,143.167 1176.5,141.5 Z"/></g>
<g><path style="opacity:0.282" fill="#000000" d="M 1254.5,131.5 C 1270.94,139.935 1281.94,152.935 1287.5,170.5C 1284.55,163.939 1281.05,157.606 1277,151.5C 1270.2,143.86 1262.7,137.194 1254.5,131.5 Z"/></g>
<g><path style="opacity:0.012" fill="#000000" d="M 359.5,146.5 C 362.323,147.992 363.99,150.326 364.5,153.5C 362.1,151.704 360.433,149.37 359.5,146.5 Z"/></g>
<g><path style="opacity:0.282" fill="#000000" d="M 279.5,131.5 C 267.571,138.357 257.571,147.357 249.5,158.5C 254.851,147.645 262.851,139.145 273.5,133C 275.345,131.872 277.345,131.372 279.5,131.5 Z"/></g>
<g><path style="opacity:0.404" fill="#000000" d="M 1168.5,150.5 C 1168.16,153.198 1166.82,155.198 1164.5,156.5C 1165.34,154.147 1166.67,152.147 1168.5,150.5 Z"/></g>
<g><path style="opacity:0.722" fill="#000000" d="M 701.5,150.5 C 701.265,156.849 700.765,163.183 700,169.5C 699.5,298.833 699.333,428.166 699.5,557.5C 698.334,425.001 698.167,292.334 699,159.5C 699.406,156.258 700.239,153.258 701.5,150.5 Z"/></g>
<g><path style="opacity:0.776" fill="#000000" d="M 835.5,159.5 C 836.172,203.039 836.838,246.706 837.5,290.5C 836.825,372.809 836.825,457.975 837.5,546C 836.862,549.935 836.196,553.769 835.5,557.5C 835.5,424.833 835.5,292.167 835.5,159.5 Z"/></g>
<g><path style="opacity:0.792" fill="#000000" d="M 1290.5,182.5 C 1291.2,185.563 1291.87,188.73 1292.5,192C 1291.48,294.869 1291.48,400.536 1292.5,509C 1291.85,516.599 1291.18,524.099 1290.5,531.5C 1290.5,415.167 1290.5,298.833 1290.5,182.5 Z"/></g>
<g><path style="opacity:1" fill="#000000" d="M 1464.5,233.5 C 1464.79,234.649 1465.62,235.316 1467,235.5C 1469.79,236.216 1472.63,236.549 1475.5,236.5C 1481.97,238.231 1487.63,241.231 1492.5,245.5C 1497.13,250.456 1502.13,255.122 1507.5,259.5C 1511.72,267.269 1515.39,275.269 1518.5,283.5C 1519.3,285.042 1519.63,286.708 1519.5,288.5C 1519.19,291.385 1519.53,294.052 1520.5,296.5C 1521.66,336.762 1521.83,377.096 1521,417.5C 1520.48,423.56 1519.65,429.56 1518.5,435.5C 1517.62,435.369 1516.96,435.702 1516.5,436.5C 1513.75,443.007 1510.75,449.34 1507.5,455.5C 1502.76,458.407 1498.76,462.24 1495.5,467C 1491.77,469.523 1488.1,472.023 1484.5,474.5C 1470.04,482.367 1454.71,484.7 1438.5,481.5C 1436.49,480.076 1434.15,479.41 1431.5,479.5C 1426.98,478.903 1422.98,477.237 1419.5,474.5C 1415.63,471.067 1411.3,468.4 1406.5,466.5C 1406.5,464.5 1405.5,463.5 1403.5,463.5C 1402.83,460.833 1401.17,459.167 1398.5,458.5C 1396.25,455.672 1394.25,452.672 1392.5,449.5C 1392.71,447.821 1392.05,446.821 1390.5,446.5C 1388.04,442.13 1386.38,437.464 1385.5,432.5C 1386.07,428.671 1385.4,425.337 1383.5,422.5C 1384.33,378.904 1384.83,335.238 1385,291.5C 1386.48,285.557 1387.65,279.557 1388.5,273.5C 1391.42,271.349 1393.08,268.349 1393.5,264.5C 1393.43,262.973 1394.09,261.973 1395.5,261.5C 1400.5,255.833 1405.83,250.5 1411.5,245.5C 1427.4,233.776 1445.07,229.776 1464.5,233.5 Z"/></g>
<g><path style="opacity:1" fill="#000000" d="M 88.5,233.5 C 90.9608,234.531 93.6275,235.198 96.5,235.5C 103.177,236.278 109.177,238.611 114.5,242.5C 114.973,243.906 115.973,244.573 117.5,244.5C 119.027,244.427 120.027,245.094 120.5,246.5C 127.203,252.202 133.203,258.536 138.5,265.5C 140.588,267.336 141.921,269.669 142.5,272.5C 142.335,276.579 143.669,279.912 146.5,282.5C 146.5,282.833 146.5,283.167 146.5,283.5C 147.615,330.157 147.782,376.823 147,423.5C 146.077,427.79 145.577,432.123 145.5,436.5C 145.737,437.791 145.404,438.791 144.5,439.5C 142.744,440.552 142.077,442.219 142.5,444.5C 139.669,451.321 135.669,457.321 130.5,462.5C 124.878,466.122 119.545,470.122 114.5,474.5C 91.5191,487.676 68.5191,487.676 45.5,474.5C 35.491,467.122 26.8243,458.456 19.5,448.5C 14.7605,439.779 11.9272,430.446 11,420.5C 10.3333,379.167 10.3333,337.833 11,296.5C 11.2724,293.746 11.7724,291.079 12.5,288.5C 13.9238,286.485 14.5905,284.152 14.5,281.5C 15.4316,276.311 17.4316,271.644 20.5,267.5C 22.8603,265.287 24.6937,262.621 26,259.5C 31.6764,254.655 37.1764,249.655 42.5,244.5C 48.6145,239.614 55.6145,236.614 63.5,235.5C 66.1522,235.59 68.4855,234.924 70.5,233.5C 76.5234,232.488 82.5234,232.488 88.5,233.5 Z"/></g>
<g><path style="opacity:0.009" fill="#000000" d="M 88.5,233.5 C 91.5533,233.111 94.22,233.777 96.5,235.5C 93.6275,235.198 90.9608,234.531 88.5,233.5 Z"/></g>
<g><path style="opacity:0.659" fill="#000000" d="M 70.5,233.5 C 68.4855,234.924 66.1522,235.59 63.5,235.5C 65.5145,234.076 67.8478,233.41 70.5,233.5 Z"/></g>
<g><path style="opacity:0.902" fill="#000000" d="M 1464.5,233.5 C 1468.48,233.742 1472.15,234.742 1475.5,236.5C 1472.63,236.549 1469.79,236.216 1467,235.5C 1465.62,235.316 1464.79,234.649 1464.5,233.5 Z"/></g>
<g><path style="opacity:0.157" fill="#000000" d="M 114.5,242.5 C 116.027,242.427 117.027,243.094 117.5,244.5C 115.973,244.573 114.973,243.906 114.5,242.5 Z"/></g>
<g><path style="opacity:0.141" fill="#000000" d="M 120.5,246.5 C 128.519,250.854 134.519,257.187 138.5,265.5C 133.203,258.536 127.203,252.202 120.5,246.5 Z"/></g>
<g><path style="opacity:0.165" fill="#000000" d="M 1411.5,245.5 C 1405.83,250.5 1400.5,255.833 1395.5,261.5C 1399.17,254.5 1404.5,249.167 1411.5,245.5 Z"/></g>
<g><path style="opacity:0.175" fill="#000000" d="M 1492.5,245.5 C 1498.78,248.779 1503.78,253.446 1507.5,259.5C 1502.13,255.122 1497.13,250.456 1492.5,245.5 Z"/></g>
<g><path style="opacity:0.231" fill="#000000" d="M 42.5,244.5 C 37.1764,249.655 31.6764,254.655 26,259.5C 24.6937,262.621 22.8603,265.287 20.5,267.5C 20.9289,263.976 22.4289,260.976 25,258.5C 29.8846,252.428 35.7179,247.761 42.5,244.5 Z"/></g>
<g><path style="opacity:0.831" fill="#000000" d="M 1393.5,264.5 C 1393.08,268.349 1391.42,271.349 1388.5,273.5C 1389.41,270.008 1391.08,267.008 1393.5,264.5 Z"/></g>
<g><path style="opacity:0.9" fill="#000000" d="M 142.5,272.5 C 144.4,275.518 145.733,278.851 146.5,282.5C 143.669,279.912 142.335,276.579 142.5,272.5 Z"/></g>
<g><path style="opacity:0.392" fill="#000000" d="M 1507.5,259.5 C 1513.85,266.208 1517.52,274.208 1518.5,283.5C 1515.39,275.269 1511.72,267.269 1507.5,259.5 Z"/></g>
<g><path style="opacity:0.686" fill="#000000" d="M 14.5,281.5 C 14.5905,284.152 13.9238,286.485 12.5,288.5C 12.4095,285.848 13.0762,283.515 14.5,281.5 Z"/></g>
<g><path style="opacity:0.557" fill="#000000" d="M 930.5,48.5 C 929.716,54.5389 928.716,60.5389 927.5,66.5C 926.5,260.999 926.167,455.666 926.5,650.5C 925.334,455.334 925.167,260 926,64.5C 926.59,58.7937 928.09,53.4603 930.5,48.5 Z"/></g>
<g><path style="opacity:0.922" fill="#000000" d="M 1519.5,288.5 C 1520.22,290.556 1520.88,292.723 1521.5,295C 1520.94,295.383 1520.61,295.883 1520.5,296.5C 1519.53,294.052 1519.19,291.385 1519.5,288.5 Z"/></g>
<g><path style="opacity:0.838" fill="#000000" d="M 1388.5,273.5 C 1387.65,279.557 1386.48,285.557 1385,291.5C 1384.83,335.238 1384.33,378.904 1383.5,422.5C 1382.34,379.335 1382.17,336.002 1383,292.5C 1383.77,285.745 1385.6,279.411 1388.5,273.5 Z"/></g>
<g><path style="opacity:0.874" fill="#000000" d="M 146.5,283.5 C 147.925,286.903 148.758,290.57 149,294.5C 149.667,337.167 149.667,379.833 149,422.5C 148.746,427.516 147.579,432.183 145.5,436.5C 145.577,432.123 146.077,427.79 147,423.5C 147.782,376.823 147.615,330.157 146.5,283.5 Z"/></g>
<g><path style="opacity:0.839" fill="#000000" d="M 1383.5,422.5 C 1385.4,425.337 1386.07,428.671 1385.5,432.5C 1383.99,429.456 1383.32,426.122 1383.5,422.5 Z"/></g>
<g><path style="opacity:0.831" fill="#000000" d="M 144.5,439.5 C 144.598,441.553 143.931,443.22 142.5,444.5C 142.077,442.219 142.744,440.552 144.5,439.5 Z"/></g>
<g><path style="opacity:0.608" fill="#000000" d="M 1390.5,446.5 C 1392.05,446.821 1392.71,447.821 1392.5,449.5C 1391.6,448.71 1390.93,447.71 1390.5,446.5 Z"/></g>
<g><path style="opacity:0.125" fill="#000000" d="M 1518.5,435.5 C 1516.37,443.107 1512.7,449.774 1507.5,455.5C 1510.75,449.34 1513.75,443.007 1516.5,436.5C 1516.96,435.702 1517.62,435.369 1518.5,435.5 Z"/></g>
<g><path style="opacity:0.298" fill="#000000" d="M 1398.5,458.5 C 1401.17,459.167 1402.83,460.833 1403.5,463.5C 1401.5,462.167 1399.83,460.5 1398.5,458.5 Z"/></g>
<g><path style="opacity:0.263" fill="#000000" d="M 19.5,448.5 C 26.8243,458.456 35.491,467.122 45.5,474.5C 41.9756,474.071 38.9756,472.571 36.5,470C 29.0671,464.085 23.4004,456.919 19.5,448.5 Z"/></g>
<g><path style="opacity:0.063" fill="#000000" d="M 130.5,462.5 C 126.556,468.456 121.222,472.456 114.5,474.5C 119.545,470.122 124.878,466.122 130.5,462.5 Z"/></g>
<g><path style="opacity:0.353" fill="#000000" d="M 1403.5,463.5 C 1405.5,463.5 1406.5,464.5 1406.5,466.5C 1405.17,465.833 1404.17,464.833 1403.5,463.5 Z"/></g>
<g><path style="opacity:0.102" fill="#000000" d="M 1406.5,466.5 C 1411.3,468.4 1415.63,471.067 1419.5,474.5C 1414.37,473.101 1410.03,470.435 1406.5,466.5 Z"/></g>
<g><path style="opacity:0.151" fill="#000000" d="M 1507.5,455.5 C 1504.1,460.406 1500.1,464.906 1495.5,469C 1492.36,471.904 1488.69,473.738 1484.5,474.5C 1488.1,472.023 1491.77,469.523 1495.5,467C 1498.76,462.24 1502.76,458.407 1507.5,455.5 Z"/></g>
<g><path style="opacity:0.6" fill="#000000" d="M 1431.5,479.5 C 1434.15,479.41 1436.49,480.076 1438.5,481.5C 1435.85,481.59 1433.51,480.924 1431.5,479.5 Z"/></g>
<g><path style="opacity:0.924" fill="#000000" d="M 240.5,531.5 C 241.693,531.97 242.36,532.97 242.5,534.5C 243.162,537.468 243.495,540.468 243.5,543.5C 241.584,539.837 240.584,535.837 240.5,531.5 Z"/></g>
<g><path style="opacity:0.396" fill="#000000" d="M 1290.5,535.5 C 1290.6,537.553 1289.93,539.22 1288.5,540.5C 1288.4,538.447 1289.07,536.78 1290.5,535.5 Z"/></g>
<g><path style="opacity:0.733" fill="#000000" d="M 1161.5,553.5 C 1159.05,550.26 1157.38,546.593 1156.5,542.5C 1157.12,542.389 1157.62,542.056 1158,541.5C 1159.48,545.447 1160.65,549.447 1161.5,553.5 Z"/></g>
<g><path style="opacity:0.939" fill="#000000" d="M 835.5,558.5 C 835.258,562.479 834.258,566.146 832.5,569.5C 832.451,566.626 832.784,563.792 833.5,561C 833.684,559.624 834.351,558.791 835.5,558.5 Z"/></g>
<g><path style="opacity:0.867" fill="#000000" d="M 699.5,558.5 C 700.649,558.791 701.316,559.624 701.5,561C 702.216,563.792 702.549,566.626 702.5,569.5C 700.742,566.146 699.742,562.479 699.5,558.5 Z"/></g>
<g><path style="opacity:0.004" fill="#000000" d="M 360.5,567.5 C 359.581,570.089 357.914,572.089 355.5,573.5C 356.419,570.911 358.086,568.911 360.5,567.5 Z"/></g>
<g><path style="opacity:0.941" fill="#000000" d="M 1170.5,567.5 C 1173.18,567.525 1174.51,568.858 1174.5,571.5C 1172.83,570.5 1171.5,569.167 1170.5,567.5 Z"/></g>
<g><path style="opacity:0.278" fill="#000000" d="M 1174.5,571.5 C 1178.03,572.029 1180.37,574.029 1181.5,577.5C 1178.57,576.243 1176.24,574.243 1174.5,571.5 Z"/></g>
<g><path style="opacity:0.047" fill="#000000" d="M 355.5,573.5 C 354.71,574.401 353.71,575.068 352.5,575.5C 352.821,573.952 353.821,573.285 355.5,573.5 Z"/></g>
<g><path style="opacity:0.176" fill="#000000" d="M 1287.5,544.5 C 1285.01,555.133 1279.68,564.133 1271.5,571.5C 1263.23,579.473 1253.56,585.14 1242.5,588.5C 1242.37,587.624 1242.7,586.957 1243.5,586.5C 1264.4,578.935 1279.06,564.935 1287.5,544.5 Z"/></g>
<g><path style="opacity:0.125" fill="#000000" d="M 705.5,577.5 C 707.25,578.659 708.25,580.326 708.5,582.5C 706.75,581.341 705.75,579.674 705.5,577.5 Z"/></g>
<g><path style="opacity:0.141" fill="#000000" d="M 829.5,577.5 C 829.25,579.674 828.25,581.341 826.5,582.5C 826.75,580.326 827.75,578.659 829.5,577.5 Z"/></g>
<g><path style="opacity:0.173" fill="#000000" d="M 1181.5,577.5 C 1186.89,579.693 1192.22,582.193 1197.5,585C 1202.29,586.522 1206.95,588.022 1211.5,589.5C 1200.08,588.781 1190.08,584.781 1181.5,577.5 Z"/></g>
<g><path style="opacity:0.098" fill="#000000" d="M 251.5,560.5 C 257.396,566.48 263.396,572.313 269.5,578C 276.456,581.308 283.123,584.808 289.5,588.5C 273.107,584.092 260.44,574.758 251.5,560.5 Z"/></g>
<g><path style="opacity:0.141" fill="#000000" d="M 352.5,575.5 C 346.516,581.124 339.516,585.124 331.5,587.5C 331.369,586.624 331.702,585.957 332.5,585.5C 339.231,582.135 345.897,578.801 352.5,575.5 Z"/></g>
<g><path style="opacity:0.075" fill="#000000" d="M 708.5,582.5 C 709.906,582.973 710.573,583.973 710.5,585.5C 709.094,585.027 708.427,584.027 708.5,582.5 Z"/></g>
<g><path style="opacity:0.212" fill="#000000" d="M 330.5,587.5 C 330.158,588.338 329.492,588.672 328.5,588.5C 328.711,586.576 329.377,586.243 330.5,587.5 Z"/></g>
<g><path style="opacity:0.027" fill="#000000" d="M 710.5,585.5 C 712.262,586.262 713.262,587.596 713.5,589.5C 711.738,588.738 710.738,587.404 710.5,585.5 Z"/></g>
<g><path style="opacity:0.031" fill="#000000" d="M 327.5,588.5 C 326.609,589.11 325.609,589.443 324.5,589.5C 325.053,587.448 326.053,587.115 327.5,588.5 Z"/></g>
<g><path style="opacity:0.027" fill="#000000" d="M 1240.5,588.5 C 1238.39,589.468 1236.06,589.802 1233.5,589.5C 1235.14,588.62 1236.97,587.954 1239,587.5C 1239.76,587.57 1240.26,587.903 1240.5,588.5 Z"/></g>
<g><path style="opacity:0.075" fill="#000000" d="M 713.5,589.5 C 717.833,593.167 721.833,597.167 725.5,601.5C 720.5,598.5 716.5,594.5 713.5,589.5 Z"/></g>
<g><path style="opacity:0.102" fill="#000000" d="M 826.5,582.5 C 822.664,590.01 817.331,596.344 810.5,601.5C 815.84,595.161 821.173,588.828 826.5,582.5 Z"/></g>
<g><path style="opacity:0.75" fill="#000000" d="M 738.5,609.5 C 742.921,609.301 746.587,610.635 749.5,613.5C 745.463,612.935 741.797,611.601 738.5,609.5 Z"/></g>
<g><path style="opacity:0.79" fill="#000000" d="M 750.5,613.5 C 753.518,613.335 756.518,613.502 759.5,614C 760.056,614.383 760.389,614.883 760.5,615.5C 756.878,615.678 753.544,615.011 750.5,613.5 Z"/></g>
<g><path style="opacity:0.794" fill="#000000" d="M 798.5,608.5 C 791.14,612.677 783.14,615.01 774.5,615.5C 782.172,612.841 790.172,610.507 798.5,608.5 Z"/></g>
<g><path style="opacity:0.604" fill="#000000" d="M 1062.5,648.5 C 1062.83,648.5 1063.17,648.5 1063.5,648.5C 1063.89,651.553 1063.22,654.22 1061.5,656.5C 1061.83,653.833 1062.17,651.167 1062.5,648.5 Z"/></g>
<g><path style="opacity:0.761" fill="#000000" d="M 475.5,672.5 C 477.048,672.821 477.715,673.821 477.5,675.5C 476.599,674.71 475.932,673.71 475.5,672.5 Z"/></g>
<g><path style="opacity:0.051" fill="#000000" d="M 1056.5,671.5 C 1053.04,681.752 1046.7,689.752 1037.5,695.5C 1044.79,688.258 1051.12,680.258 1056.5,671.5 Z"/></g>
<g><path style="opacity:0.247" fill="#000000" d="M 594.5,679.5 C 593.318,683.021 591.318,686.021 588.5,688.5C 589.723,684.951 591.723,681.951 594.5,679.5 Z"/></g>
<g><path style="opacity:0.973" fill="#000000" d="M 940.5,684.5 C 943.179,684.525 944.512,685.858 944.5,688.5C 942.833,687.5 941.5,686.167 940.5,684.5 Z"/></g>
<g><path style="opacity:0.157" fill="#000000" d="M 944.5,689.5 C 946.404,689.738 947.738,690.738 948.5,692.5C 946.596,692.262 945.262,691.262 944.5,689.5 Z"/></g>
<g><path style="opacity:0.012" fill="#000000" d="M 588.5,688.5 C 587.5,690.167 586.167,691.5 584.5,692.5C 584.833,690.167 586.167,688.833 588.5,688.5 Z"/></g>
<g><path style="opacity:0.192" fill="#000000" d="M 482.5,684.5 C 487.757,686.755 491.757,690.422 494.5,695.5C 489.895,692.564 485.895,688.898 482.5,684.5 Z"/></g>
<g><path style="opacity:0.224" fill="#000000" d="M 584.5,692.5 C 582.45,694.547 580.117,696.214 577.5,697.5C 578.527,694.142 580.86,692.475 584.5,692.5 Z"/></g>
<g><path style="opacity:0.212" fill="#000000" d="M 948.5,692.5 C 955.838,696.841 963.172,701.175 970.5,705.5C 961.614,703.578 954.281,699.244 948.5,692.5 Z"/></g>
<g><path style="opacity:0.173" fill="#000000" d="M 1037.5,695.5 C 1032.19,700.656 1025.86,703.989 1018.5,705.5C 1024.81,702.209 1031.14,698.875 1037.5,695.5 Z"/></g>
<g><path style="opacity:0.055" fill="#000000" d="M 577.5,697.5 C 573.016,701.742 567.682,704.409 561.5,705.5C 566.558,702.304 571.891,699.638 577.5,697.5 Z"/></g>
<g><path style="opacity:0.043" fill="#000000" d="M 494.5,695.5 C 500.838,698.842 507.172,702.175 513.5,705.5C 506.143,703.989 499.809,700.656 494.5,695.5 Z"/></g>
</svg>
